<svg width="209" height="209" viewBox="0 0 209 209" fill="none" xmlns="http://www.w3.org/2000/svg">
<g filter="url(#filter0_d_70_37)">
<path d="M194.289 166.195C174.289 155.669 158.995 149.829 145.412 147.522L146.889 145.489C147.469 144.692 147.669 143.675 147.425 142.719L144.332 130.345C145.465 128.749 146.532 127.099 147.536 125.405C159.992 121.179 166.305 114.029 167.346 103.462C173.012 103.119 177.529 98.4453 177.529 92.6953V67.6953C177.529 61.982 173.069 57.3387 167.459 56.9387C166.672 37.5754 158.152 0.195312 104.195 0.195312C50.2352 0.195312 41.7152 37.5754 40.932 56.9387C35.3187 57.3387 30.8621 61.982 30.8621 67.6953V92.6953C30.8621 98.6687 35.7223 103.529 41.6953 103.529H46.6953C48.6387 103.529 50.4387 102.972 52.0152 102.072C53.9187 112.095 58.1152 121.965 64.0551 130.345L60.9617 142.719C60.7219 143.675 60.9184 144.692 61.4984 145.489L62.9785 147.522C49.3953 149.829 34.1019 155.668 14.0984 166.195C7.98867 169.412 4.19531 175.702 4.19531 182.612V196.862C4.19531 198.702 5.68516 200.195 7.52852 200.195H87.5285H87.532H88.7785H88.782L119.462 200.165C119.515 200.169 119.562 200.195 119.616 200.195H200.862C202.702 200.195 204.195 198.702 204.195 196.862V182.612C204.195 175.702 200.399 169.412 194.289 166.195ZM152.135 116.182C154.029 111.609 155.462 106.859 156.372 102.072C157.669 102.812 159.118 103.279 160.678 103.425C160.102 108.195 157.982 112.669 152.135 116.182ZM51.6418 58.1152C50.4086 57.4754 49.0484 57.0754 47.5984 56.9519C48.4187 36.8586 57.4719 6.86211 104.195 6.86211C150.915 6.86211 159.969 36.859 160.789 56.9519C159.339 57.0754 157.979 57.4754 156.745 58.1152C152.552 32.8621 130.615 13.5285 104.195 13.5285C77.7719 13.5285 55.8352 32.8621 51.6418 58.1152ZM67.8055 142.825L69.3019 136.845C69.3152 136.862 69.3285 136.872 69.3418 136.885C77.3953 145.639 87.6351 151.805 99.1816 153.209C99.1883 153.209 99.1949 153.212 99.2051 153.212L97.6949 156.605L90.1582 173.562L67.8055 142.825ZM104.195 158.405L112.399 176.862H95.9922L104.195 158.405ZM91.5953 193.525L93.5918 183.529H114.795L116.795 193.502L91.5953 193.525ZM118.229 173.562L110.692 156.605L109.185 153.212C109.192 153.212 109.198 153.209 109.205 153.209C120.752 151.805 130.995 145.639 139.045 136.885C139.058 136.872 139.075 136.862 139.085 136.845L140.585 142.825L118.229 173.562ZM107.529 123.529C105.685 123.529 104.195 125.022 104.195 126.862C104.195 128.702 105.685 130.195 107.529 130.195C119.709 130.195 129.805 129.415 138.089 127.835C137.962 128.002 137.825 128.158 137.695 128.325C137.579 128.435 137.425 128.508 137.325 128.638C136.182 130.101 134.995 131.484 133.775 132.781C133.765 132.791 133.755 132.801 133.745 132.811C132.942 133.665 132.099 134.425 131.265 135.205C123.115 142.555 113.435 146.861 104.195 146.861C94.9519 146.861 85.2719 142.555 77.1254 135.208C76.2887 134.425 75.4453 133.664 74.6422 132.808C74.632 132.801 74.6254 132.791 74.6156 132.784C73.3957 131.484 72.209 130.101 71.0621 128.638C70.9621 128.508 70.8121 128.434 70.6922 128.325C62.8387 118.414 57.5289 105.205 57.5289 90.1945V67.6945V66.8613C57.5285 41.1285 78.4621 20.1953 104.195 20.1953C129.925 20.1953 150.862 41.1285 150.862 66.8621V67.6953V90.1953C150.862 101.265 147.945 111.339 143.292 119.859C135.332 122.155 123.902 123.529 107.529 123.529Z" fill="black" stroke="#96D0CD" stroke-width="0.390625"/>
</g>
<defs>
<filter id="filter0_d_70_37" x="0" y="0" width="208.391" height="208.391" filterUnits="userSpaceOnUse" color-interpolation-filters="sRGB">
<feFlood flood-opacity="0" result="BackgroundImageFix"/>
<feColorMatrix in="SourceAlpha" type="matrix" values="0 0 0 0 0 0 0 0 0 0 0 0 0 0 0 0 0 0 127 0" result="hardAlpha"/>
<feOffset dy="4"/>
<feGaussianBlur stdDeviation="2"/>
<feComposite in2="hardAlpha" operator="out"/>
<feColorMatrix type="matrix" values="0 0 0 0 0 0 0 0 0 0 0 0 0 0 0 0 0 0 0.25 0"/>
<feBlend mode="normal" in2="BackgroundImageFix" result="effect1_dropShadow_70_37"/>
<feBlend mode="normal" in="SourceGraphic" in2="effect1_dropShadow_70_37" result="shape"/>
</filter>
</defs>
</svg>
