<svg width="215" height="215" viewBox="0 0 215 215" fill="none" xmlns="http://www.w3.org/2000/svg">
<path d="M7.5 74.1667H207.5M51.9444 7.5V29.7222M163.056 7.5V29.7222M40.8333 107.5H63.0556M96.3889 107.5H118.611M151.944 107.5H174.167M40.8333 140.833H63.0556M96.3889 140.833H118.611M151.944 140.833H174.167M40.8333 174.167H63.0556M96.3889 174.167H118.611M151.944 174.167H174.167M43.0556 207.5H171.944C184.39 207.5 190.613 207.5 195.367 205.078C199.548 202.948 202.948 199.548 205.078 195.367C207.5 190.613 207.5 184.39 207.5 171.944V65.2778C207.5 52.8321 207.5 46.6093 205.078 41.8558C202.948 37.6743 199.548 34.2748 195.367 32.1443C190.613 29.7222 184.39 29.7222 171.944 29.7222H43.0556C30.61 29.7222 24.3871 29.7222 19.6336 32.1443C15.4521 34.2748 12.0526 37.6743 9.92211 41.8558C7.5 46.6093 7.5 52.8321 7.5 65.2778V171.944C7.5 184.39 7.5 190.613 9.92211 195.367C12.0526 199.548 15.4521 202.948 19.6336 205.078C24.3871 207.5 30.6099 207.5 43.0556 207.5Z" stroke="black" stroke-width="15" stroke-linecap="round"/>
</svg>
